<mxfile host="app.diagrams.net" agent="Mozilla/5.0 (Windows NT 10.0; Win64; x64) AppleWebKit/537.36 (KHTML, like Gecko) Chrome/130.0.0.0 Safari/537.36 Edg/130.0.0.0" version="24.8.0">
  <diagram name="Page-1" id="j5CK0Zi3JRXR2W5CR72K">
    <mxGraphModel dx="1426" dy="791" grid="0" gridSize="10" guides="1" tooltips="1" connect="1" arrows="1" fold="1" page="1" pageScale="1" pageWidth="850" pageHeight="1100" background="#000000" math="0" shadow="0">
      <root>
        <mxCell id="0" />
        <mxCell id="1" parent="0" />
        <mxCell id="pyJnmozeQEmjMJqZbPEm-24" value="" style="rounded=0;whiteSpace=wrap;html=1;fillColor=#000000;strokeColor=#FFFFFF;dropTarget=1;" vertex="1" parent="1">
          <mxGeometry x="131" y="398" width="583" height="84" as="geometry" />
        </mxCell>
        <mxCell id="pyJnmozeQEmjMJqZbPEm-1" value="" style="endArrow=none;dashed=1;html=1;rounded=0;strokeColor=#FFFFFF;" edge="1" parent="1">
          <mxGeometry width="50" height="50" relative="1" as="geometry">
            <mxPoint x="223" y="657" as="sourcePoint" />
            <mxPoint x="223" y="212" as="targetPoint" />
          </mxGeometry>
        </mxCell>
        <mxCell id="pyJnmozeQEmjMJqZbPEm-3" value="" style="endArrow=none;dashed=1;html=1;rounded=0;strokeColor=#FFFFFF;" edge="1" parent="1">
          <mxGeometry width="50" height="50" relative="1" as="geometry">
            <mxPoint x="589" y="665" as="sourcePoint" />
            <mxPoint x="589" y="220" as="targetPoint" />
          </mxGeometry>
        </mxCell>
        <mxCell id="pyJnmozeQEmjMJqZbPEm-4" value="&lt;font color=&quot;#ffffff&quot;&gt;User Registration&lt;/font&gt;" style="text;html=1;align=center;verticalAlign=middle;whiteSpace=wrap;rounded=0;" vertex="1" parent="1">
          <mxGeometry x="55" y="92" width="178" height="30" as="geometry" />
        </mxCell>
        <mxCell id="pyJnmozeQEmjMJqZbPEm-7" value="&lt;font color=&quot;#ffffff&quot;&gt;&lt;u&gt;:User&lt;/u&gt;&lt;/font&gt;" style="text;html=1;align=center;verticalAlign=middle;whiteSpace=wrap;rounded=0;" vertex="1" parent="1">
          <mxGeometry x="192" y="181" width="60" height="30" as="geometry" />
        </mxCell>
        <mxCell id="pyJnmozeQEmjMJqZbPEm-8" value="" style="rounded=0;whiteSpace=wrap;html=1;fillColor=#000000;strokeColor=#FFFFFF;" vertex="1" parent="1">
          <mxGeometry x="530" y="156" width="120" height="60" as="geometry" />
        </mxCell>
        <mxCell id="pyJnmozeQEmjMJqZbPEm-9" value="&lt;font color=&quot;#ffffff&quot;&gt;&lt;u&gt;:System&lt;/u&gt;&lt;/font&gt;" style="text;html=1;align=center;verticalAlign=middle;whiteSpace=wrap;rounded=0;" vertex="1" parent="1">
          <mxGeometry x="560" y="171" width="60" height="30" as="geometry" />
        </mxCell>
        <mxCell id="pyJnmozeQEmjMJqZbPEm-10" value="" style="endArrow=classic;html=1;rounded=0;strokeColor=#FFFFFF;" edge="1" parent="1">
          <mxGeometry width="50" height="50" relative="1" as="geometry">
            <mxPoint x="223" y="264" as="sourcePoint" />
            <mxPoint x="592" y="264" as="targetPoint" />
          </mxGeometry>
        </mxCell>
        <mxCell id="pyJnmozeQEmjMJqZbPEm-12" value="&lt;font color=&quot;#ffffff&quot;&gt;UserRegistration():&lt;/font&gt;" style="text;html=1;align=center;verticalAlign=middle;whiteSpace=wrap;rounded=0;" vertex="1" parent="1">
          <mxGeometry x="369" y="234" width="60" height="30" as="geometry" />
        </mxCell>
        <mxCell id="pyJnmozeQEmjMJqZbPEm-13" value="" style="endArrow=classic;html=1;rounded=0;strokeColor=#FFFFFF;" edge="1" parent="1">
          <mxGeometry width="50" height="50" relative="1" as="geometry">
            <mxPoint x="223" y="326" as="sourcePoint" />
            <mxPoint x="592" y="326" as="targetPoint" />
          </mxGeometry>
        </mxCell>
        <mxCell id="pyJnmozeQEmjMJqZbPEm-14" value="&lt;font color=&quot;#ffffff&quot;&gt;AddUserType(Type):&lt;/font&gt;" style="text;html=1;align=center;verticalAlign=middle;whiteSpace=wrap;rounded=0;" vertex="1" parent="1">
          <mxGeometry x="285" y="297" width="243" height="30" as="geometry" />
        </mxCell>
        <mxCell id="pyJnmozeQEmjMJqZbPEm-16" value="" style="endArrow=classic;html=1;rounded=0;strokeColor=#FFFFFF;dashed=1;" edge="1" parent="1">
          <mxGeometry width="50" height="50" relative="1" as="geometry">
            <mxPoint x="587" y="377" as="sourcePoint" />
            <mxPoint x="222" y="377" as="targetPoint" />
          </mxGeometry>
        </mxCell>
        <mxCell id="pyJnmozeQEmjMJqZbPEm-17" value="&lt;font style=&quot;background-color: rgb(0, 0, 0);&quot; color=&quot;#ffffff&quot;&gt;Type&lt;/font&gt;" style="text;html=1;align=center;verticalAlign=middle;whiteSpace=wrap;rounded=0;" vertex="1" parent="1">
          <mxGeometry x="282" y="347" width="243" height="30" as="geometry" />
        </mxCell>
        <mxCell id="pyJnmozeQEmjMJqZbPEm-18" value="" style="endArrow=classic;html=1;rounded=0;strokeColor=#FFFFFF;" edge="1" parent="1">
          <mxGeometry width="50" height="50" relative="1" as="geometry">
            <mxPoint x="225" y="519" as="sourcePoint" />
            <mxPoint x="594" y="519" as="targetPoint" />
          </mxGeometry>
        </mxCell>
        <mxCell id="pyJnmozeQEmjMJqZbPEm-19" value="&lt;font color=&quot;#ffffff&quot;&gt;User&amp;amp;Password(User, Password)&lt;/font&gt;" style="text;html=1;align=center;verticalAlign=middle;whiteSpace=wrap;rounded=0;" vertex="1" parent="1">
          <mxGeometry x="287" y="490" width="243" height="30" as="geometry" />
        </mxCell>
        <mxCell id="pyJnmozeQEmjMJqZbPEm-20" value="" style="endArrow=classic;html=1;rounded=0;strokeColor=#FFFFFF;dashed=1;" edge="1" parent="1">
          <mxGeometry width="50" height="50" relative="1" as="geometry">
            <mxPoint x="587" y="568" as="sourcePoint" />
            <mxPoint x="222" y="568" as="targetPoint" />
          </mxGeometry>
        </mxCell>
        <mxCell id="pyJnmozeQEmjMJqZbPEm-21" value="&lt;font style=&quot;background-color: rgb(0, 0, 0);&quot; color=&quot;#ffffff&quot;&gt;User&lt;/font&gt;" style="text;html=1;align=center;verticalAlign=middle;whiteSpace=wrap;rounded=0;" vertex="1" parent="1">
          <mxGeometry x="282" y="538" width="243" height="30" as="geometry" />
        </mxCell>
        <mxCell id="pyJnmozeQEmjMJqZbPEm-22" value="" style="endArrow=classic;html=1;rounded=0;strokeColor=#FFFFFF;" edge="1" parent="1">
          <mxGeometry width="50" height="50" relative="1" as="geometry">
            <mxPoint x="222" y="616" as="sourcePoint" />
            <mxPoint x="591" y="616" as="targetPoint" />
          </mxGeometry>
        </mxCell>
        <mxCell id="pyJnmozeQEmjMJqZbPEm-23" value="&lt;font color=&quot;#ffffff&quot;&gt;EndUserCreation()&lt;/font&gt;" style="text;html=1;align=center;verticalAlign=middle;whiteSpace=wrap;rounded=0;" vertex="1" parent="1">
          <mxGeometry x="284" y="587" width="243" height="30" as="geometry" />
        </mxCell>
        <mxCell id="pyJnmozeQEmjMJqZbPEm-25" value="" style="rounded=0;whiteSpace=wrap;html=1;fillColor=#000000;strokeColor=#FFFFFF;" vertex="1" parent="1">
          <mxGeometry x="131" y="398" width="52" height="27" as="geometry" />
        </mxCell>
        <mxCell id="pyJnmozeQEmjMJqZbPEm-26" value="&lt;font color=&quot;#ffffff&quot;&gt;Opt&lt;/font&gt;" style="text;html=1;align=center;verticalAlign=middle;whiteSpace=wrap;rounded=0;" vertex="1" parent="1">
          <mxGeometry x="131" y="395" width="60" height="30" as="geometry" />
        </mxCell>
        <mxCell id="pyJnmozeQEmjMJqZbPEm-27" value="" style="endArrow=classic;html=1;rounded=0;strokeColor=#FFFFFF;" edge="1" parent="1">
          <mxGeometry width="50" height="50" relative="1" as="geometry">
            <mxPoint x="224" y="427" as="sourcePoint" />
            <mxPoint x="593" y="427" as="targetPoint" />
          </mxGeometry>
        </mxCell>
        <mxCell id="pyJnmozeQEmjMJqZbPEm-28" value="&lt;font color=&quot;#ffffff&quot;&gt;AddGaurdian(information)&lt;/font&gt;" style="text;html=1;align=center;verticalAlign=middle;whiteSpace=wrap;rounded=0;" vertex="1" parent="1">
          <mxGeometry x="286" y="398" width="243" height="30" as="geometry" />
        </mxCell>
        <mxCell id="pyJnmozeQEmjMJqZbPEm-29" value="" style="endArrow=classic;html=1;rounded=0;strokeColor=#FFFFFF;dashed=1;" edge="1" parent="1">
          <mxGeometry width="50" height="50" relative="1" as="geometry">
            <mxPoint x="590" y="458" as="sourcePoint" />
            <mxPoint x="225" y="458" as="targetPoint" />
          </mxGeometry>
        </mxCell>
        <mxCell id="pyJnmozeQEmjMJqZbPEm-30" value="&lt;font style=&quot;background-color: rgb(0, 0, 0);&quot; color=&quot;#ffffff&quot;&gt;Gaurdian&lt;/font&gt;" style="text;html=1;align=center;verticalAlign=middle;whiteSpace=wrap;rounded=0;" vertex="1" parent="1">
          <mxGeometry x="285" y="428" width="243" height="30" as="geometry" />
        </mxCell>
      </root>
    </mxGraphModel>
  </diagram>
</mxfile>
